<svg width="22" height="23" viewBox="0 0 22 23" fill="none" xmlns="http://www.w3.org/2000/svg">
<path d="M1.28922 8.08703C1.2794 8.10421 1.26958 8.12385 1.25976 8.14348L1.28922 8.08703ZM1.28922 8.08703C1.29383 8.07781 1.2994 8.06954 1.30473 8.06164C1.30792 8.05692 1.31102 8.05234 1.31377 8.04775L1.28922 8.08703ZM20.7572 8.18059L20.7572 8.18051C20.7536 8.16959 20.7486 8.16003 20.7432 8.14977C20.7414 8.14624 20.7395 8.14263 20.7376 8.13884C20.7327 8.12903 20.7278 8.11983 20.7229 8.11062C20.718 8.10141 20.7131 8.0922 20.7081 8.08237L20.7082 8.08241C20.7062 8.07912 20.7042 8.07566 20.7022 8.07213C20.6967 8.06243 20.6908 8.05216 20.6836 8.04318L20.6836 8.04315C20.664 8.0137 20.6419 7.98426 20.6198 7.9548C20.6075 7.94007 20.5928 7.9229 20.5781 7.90819L20.5781 7.90814C20.5683 7.89592 20.5561 7.88613 20.5438 7.87631L20.5437 7.87627C20.5335 7.86607 20.5222 7.85707 20.5113 7.84841C20.5064 7.84457 20.5017 7.8408 20.4971 7.83701L20.4971 7.83699L20.7572 8.18059ZM20.7572 8.18059C20.7621 8.19037 20.7658 8.20077 20.7692 8.2112C20.7725 8.2216 20.7756 8.23204 20.7793 8.24186L20.7572 8.18059ZM20.4432 7.7978L20.4431 7.79777L11.4688 1.82388C11.3304 1.73146 11.1678 1.68214 11.0014 1.68214C10.835 1.68214 10.6723 1.73146 10.5339 1.82388L1.5547 7.80267L1.55465 7.80271L1.55464 7.80271C1.55224 7.80391 1.54983 7.80572 1.54736 7.80757L1.54733 7.80759C1.5449 7.80942 1.54241 7.81128 1.53991 7.81253L1.54 7.81247C1.52773 7.82229 1.51544 7.83213 1.50069 7.84196L1.5007 7.84195C1.48948 7.84996 1.47933 7.85901 1.46952 7.86775C1.46432 7.87239 1.45921 7.87694 1.45408 7.88121L1.45407 7.88122C1.44796 7.88611 1.44246 7.89161 1.43693 7.89714L1.43692 7.89715C1.4314 7.90266 1.42586 7.90821 1.4197 7.91314L1.41974 7.9131C1.40501 7.92783 1.39031 7.94253 1.37806 7.95968L1.37802 7.95973L1.37802 7.95973C1.3535 7.9867 1.33388 8.01612 1.31425 8.04803C1.31149 8.05264 1.30838 8.05724 1.30519 8.06196C1.30412 8.06355 1.30304 8.06516 1.30196 8.06678C1.29766 8.07322 1.29338 8.07995 1.28972 8.08728L1.2897 8.08731C1.27989 8.10447 1.27008 8.12409 1.26026 8.14373L1.26025 8.14375L1.26023 8.14379C1.25657 8.1499 1.25351 8.15662 1.25044 8.16368C1.2499 8.16493 1.24936 8.16619 1.24881 8.16746C1.24627 8.17334 1.24365 8.17942 1.24061 8.18549L1.24011 8.18525L1.24063 8.18544C1.23695 8.19526 1.23327 8.20568 1.22959 8.21612L1.22959 8.21612C1.2259 8.22656 1.22222 8.237 1.21853 8.24683L1.21801 8.24663L1.21854 8.24681C1.21753 8.24983 1.21653 8.25274 1.21554 8.25559C1.21172 8.26667 1.20823 8.27679 1.20628 8.28846L1.20628 8.28849H1.20628C1.20137 8.31058 1.19646 8.33512 1.19155 8.35967L1.19155 8.35969L1.18419 8.39648C1.17928 8.43329 1.17683 8.47009 1.17683 8.5069V14.4857C1.17683 14.5225 1.17928 14.5593 1.18419 14.5961C1.18419 14.5961 1.18419 14.5961 1.18419 14.5961L1.19155 14.6329L1.19155 14.6329L1.20626 14.704C1.20627 14.7041 1.20627 14.7041 1.20627 14.7041C1.20873 14.7114 1.21057 14.7182 1.21241 14.7249C1.21425 14.7317 1.21609 14.7384 1.21854 14.7458C1.2259 14.7679 1.23326 14.7875 1.24063 14.8071L1.24064 14.8072C1.24428 14.8181 1.24927 14.8276 1.25463 14.8379C1.25647 14.8414 1.25836 14.8451 1.26025 14.8488C1.26275 14.8538 1.26509 14.8587 1.26739 14.8634C1.27414 14.8774 1.28055 14.8906 1.28969 14.9053L1.28969 14.9053C1.29167 14.9086 1.29364 14.912 1.29565 14.9156C1.30118 14.9253 1.30703 14.9355 1.31421 14.9445L1.31422 14.9445C1.31834 14.9503 1.32217 14.956 1.32599 14.9618C1.33362 14.9732 1.34122 14.9846 1.35102 14.996L1.35104 14.9961L1.38049 15.0329C1.39277 15.0476 1.40749 15.0648 1.4222 15.0795L1.42224 15.0795C1.43202 15.0918 1.44424 15.1015 1.45653 15.1114L1.45658 15.1114C1.46676 15.1216 1.47812 15.1306 1.48904 15.1393C1.49388 15.1431 1.49864 15.1469 1.50318 15.1507L20.4432 7.7978ZM20.4432 7.7978C20.4456 7.799 20.448 7.80081 20.4505 7.80266L20.4505 7.80268C20.4529 7.8045 20.4554 7.80635 20.4579 7.8076L20.4432 7.7978ZM20.6914 14.9448C20.6942 14.9403 20.6973 14.9357 20.7005 14.9309C20.7058 14.923 20.7114 14.9148 20.716 14.9056C20.7209 14.8957 20.7258 14.8865 20.7307 14.8773C20.7357 14.8681 20.7406 14.8589 20.7455 14.8491C20.7498 14.8419 20.7533 14.8338 20.7569 14.8254C20.7595 14.8195 20.7621 14.8134 20.7651 14.8073L20.7646 14.8071C20.7683 14.7973 20.7719 14.7869 20.7756 14.7765C20.7793 14.766 20.783 14.7556 20.7867 14.7458C20.7916 14.7335 20.7965 14.7188 20.7989 14.7041L20.7989 14.704C20.804 14.689 20.8067 14.6727 20.8095 14.6561C20.8108 14.6485 20.8121 14.6407 20.8137 14.6329L20.821 14.5961C20.8259 14.5593 20.8284 14.5225 20.8284 14.4857V8.50204C20.8235 8.47748 20.8207 8.4529 20.818 8.42835C20.8167 8.41609 20.8153 8.40383 20.8137 8.39159C20.8137 8.39158 20.8137 8.39158 20.8137 8.39157L20.8063 8.35477C20.8048 8.3471 20.8035 8.33968 20.8022 8.33235C20.7994 8.31618 20.7966 8.30049 20.7916 8.28362C20.7906 8.28064 20.7896 8.27775 20.7886 8.27491L20.6914 14.9448ZM11.8448 4.10009V4.1002L11.8467 4.10146V8.03301H11.8462L11.8469 8.03348L15.5054 10.479L15.5049 10.4798L15.506 10.479L18.4598 8.50491L18.4595 8.50444L18.4592 8.50398L18.4587 8.50323L11.8478 4.10087V4.09953H11.8473V4.09897H11.8448V4.09953V4.10009ZM11.8467 4.10009V4.10012L11.8466 4.10009H11.8467ZM10.1558 8.03348L10.1561 8.03385V8.03301V4.09953H10.1555L10.1552 4.09907L3.54292 8.50398L3.54323 8.50444L3.54354 8.50491L3.54404 8.50565L6.49672 10.479L6.49622 10.4798L6.49734 10.479L10.1558 8.03348ZM2.86556 10.0808L2.86524 10.0812L2.865 10.0816V12.9044H2.86556H2.86611H2.86656L4.97747 11.4931L4.97716 11.4926L4.97685 11.4921L4.97635 11.4914L2.86587 10.0803L2.86556 10.0808ZM3.54323 14.4783L3.54354 14.4788L3.54404 14.4795L10.1552 18.8837L10.1555 18.8832H10.1561V14.9498H10.1565L10.1558 14.9493L6.49734 12.5038L6.49784 12.503L6.49672 12.5038L3.54292 14.4779L3.54323 14.4783ZM10.9998 13.4868L10.9993 13.4876L11.0005 13.4868L13.9862 11.4906L13.9859 11.4902L13.9856 11.4897L13.9851 11.4889L11.0005 9.49594L11.001 9.49519L10.9998 9.49594L8.01413 11.4921L8.01444 11.4926L8.01475 11.4931L8.01525 11.4938L10.9998 13.4868ZM11.8445 14.9493L11.8442 14.9489V14.9498V18.8832H11.8448L11.8451 18.8837L18.4574 14.4788L18.4571 14.4783L18.4568 14.4779L18.4563 14.4771L15.5036 12.5038L15.5041 12.503L15.503 12.5038L11.8445 14.9493ZM19.1348 12.902L19.1351 12.9015L19.1353 12.9012V10.0783H19.1348H19.1342H19.1337L17.0228 11.4897L17.0231 11.4902L17.0235 11.4906L17.024 11.4914L19.1344 12.9025L19.1348 12.902Z" fill="white" stroke="white" stroke-width="0.00111607"/>
</svg>
