<svg width="43" height="42" viewBox="0 0 43 42" fill="none" xmlns="http://www.w3.org/2000/svg">
<path d="M36.807 18.2973L36.7988 18.2645L32.1969 6.57095C31.9918 5.9106 31.3807 5.45532 30.6875 5.45532H12.0336C11.3363 5.45532 10.717 5.9188 10.5201 6.58735L6.21759 18.162L6.20529 18.1907L6.19708 18.2235C6.14376 18.4245 6.12736 18.6295 6.15607 18.8305C6.15197 18.8961 6.14787 18.9618 6.14787 19.0274V34.035C6.14895 34.6961 6.41203 35.3297 6.87947 35.7972C7.3469 36.2646 7.98057 36.5277 8.64162 36.5288H34.3666C35.7406 36.5288 36.8604 35.409 36.8645 34.035V19.0274C36.8645 18.9741 36.8645 18.9208 36.8604 18.8756C36.8768 18.6747 36.8604 18.4819 36.807 18.2973ZM24.6746 16.5336L24.6623 17.1776C24.6295 19.0192 23.358 20.2579 21.5 20.2579C20.5936 20.2579 19.8143 19.9666 19.2524 19.4129C18.6904 18.8592 18.3828 18.0881 18.3664 17.1776L18.3541 16.5336H9.9131L13.1738 8.60532H29.5473L32.8983 16.5336H24.6746ZM9.29376 19.6836H15.7455C16.7422 22.0256 18.8627 23.4079 21.5041 23.4079C22.8863 23.4079 24.1701 23.0223 25.2078 22.2922C26.1184 21.6524 26.8279 20.7583 27.2873 19.6836H33.7063V33.3788H9.29376V19.6836Z" fill="#55A6FF"/>
</svg>
