<svg width="21" height="20" viewBox="0 0 21 20" fill="none" xmlns="http://www.w3.org/2000/svg">
<path d="M13.8333 3.5C15.0833 3.5 16.3333 4 17.3333 4.91667L18 4.25C16.8333 3.08333 15.3333 2.5 13.8333 2.5C12.3333 2.5 10.8333 3.08333 9.66667 4.25L10.3333 4.91667C11.3333 4 12.5833 3.5 13.8333 3.5ZM11.0833 5.58333L11.75 6.25C12.3333 5.66667 13.0833 5.41667 13.8333 5.41667C14.5833 5.41667 15.3333 5.66667 15.9167 6.25L16.5833 5.58333C15.8333 4.83333 14.8333 4.41667 13.8333 4.41667C12.8333 4.41667 11.8333 4.83333 11.0833 5.58333ZM16.3333 10.8333H14.6667V7.5H13V10.8333H4.66667C3.75 10.8333 3 11.5833 3 12.5V15.8333C3 16.75 3.75 17.5 4.66667 17.5H16.3333C17.25 17.5 18 16.75 18 15.8333V12.5C18 11.5833 17.25 10.8333 16.3333 10.8333ZM16.3333 15.8333H4.66667V12.5H16.3333V15.8333ZM5.5 13.3333H7.16667V15H5.5V13.3333ZM8.41667 13.3333H10.0833V15H8.41667V13.3333ZM11.3333 13.3333H13V15H11.3333V13.3333Z" fill="#2188FF"/>
</svg>
