<svg width="103" height="14" viewBox="0 0 103 14" fill="none" xmlns="http://www.w3.org/2000/svg">
<path d="M36.4338 0.304383L42.4117 13.8038H38.4339L37.3686 11.1732L36.26 8.34729L34.521 4.02106L32.782 8.34729L31.6734 11.1732L30.6081 13.8038H26.6952L32.6731 0.304383H36.4338ZM24.7391 7.86909C25.1957 7.12976 25.4344 6.2823 25.4344 5.30427C25.4344 4.32624 25.1732 3.41309 24.695 2.65213C24.1952 1.89118 23.4991 1.32647 22.6084 0.913148C21.6953 0.499828 20.6299 0.304383 19.4348 0.304383H13.2615V3.30415H19.1961C19.9571 3.30415 20.5659 3.47797 20.9784 3.82561C21.3701 4.17325 21.5871 4.67308 21.5871 5.28184C21.5871 5.89061 21.3701 6.39043 20.9784 6.73807C20.5651 7.08571 19.9787 7.2379 19.1961 7.2379H13.2615V13.7813H17.0871V10.1944H19.1737L21.6304 13.7813H25.7171L22.783 9.56483C23.6089 9.15151 24.2609 8.60842 24.7391 7.86909ZM102.953 0.304383H99.2143L99.1927 4.17405L102.932 8.69573L102.953 0.304383ZM47.4757 3.63016C48.0628 3.32578 48.7148 3.15196 49.4542 3.15196C50.6933 3.15196 51.7587 3.69505 52.6278 4.73876L55.0628 2.5432C54.4108 1.73899 53.585 1.08697 52.5845 0.65202C51.5849 0.217073 50.4763 0 49.2371 0C47.8025 0 46.5417 0.304383 45.4115 0.913148C44.3029 1.52191 43.4114 2.34775 42.7594 3.39146C42.1073 4.47843 41.803 5.67433 41.803 7.02163C41.803 8.36892 42.1073 9.58645 42.7594 10.6518C43.4114 11.6955 44.3029 12.5213 45.4115 13.1085C46.5201 13.7172 47.8025 14 49.2371 14C50.4763 14 51.5632 13.7829 52.5845 13.348C53.5625 12.913 54.3892 12.2826 55.0628 11.4568L52.6278 9.26124C51.7362 10.3266 50.6709 10.848 49.4542 10.848C48.7148 10.848 48.0628 10.6958 47.4757 10.3698C46.8885 10.0655 46.4536 9.60888 46.15 9.02174C45.8464 8.4346 45.6934 7.76096 45.6934 7C45.6934 6.23904 45.8456 5.5654 46.15 4.99989C46.4544 4.41275 46.911 3.95617 47.4757 3.63016ZM0 3.32578H4.15242V13.8038H7.97803V3.32578H12.108V0.304383H0V3.32578ZM90.1277 13.8038H93.8668L93.8884 9.76027L90.1493 4.99989L90.1277 13.8038ZM79.5408 0.304383L73.5845 13.8038H77.4758L78.5411 11.1732L79.6497 8.34729L81.3887 4.02106L83.1277 8.34729L84.2363 11.1732L85.3016 13.8038H89.2794L83.3015 0.304383H79.5408ZM99.2143 7.49983L93.258 0.304383H90.1061V2.10825L93.8452 6.62993L99.8015 13.8254H102.953V12.2602L99.2143 7.49983ZM68.9106 13.8038H72.7362V0.304383H68.9106V13.8038ZM55.6716 3.32578H59.8024V13.8038H63.628V3.32578H67.758V0.304383H55.6716V3.32578Z" fill="white"/>
</svg>
